# xmcd
#
# Track frame offsets: 
#        150
#        13372
#        25395
#        37192
#        52345
#        65552
#        82637
#        97107
#        112757
#        127057
#        143362
#        159630
#
# Disc length: 2255 seconds
#
# Revision: 2
# Processed by: cddbd v1.4PL0 Copyright (c) Steve Scherf et al.
# Submitted via: ExactAudioCopy v0.90b2
#
DISCID=a408cd0c
DTITLE=Marty Stuart - The Marty Party Hit Pack
DYEAR=1900
DGENRE=Country
TTITLE0=If I Ain't Got You
TTITLE1=The Whiskey Ain't Workin' (With Travis Tritt)
TTITLE2=Hillbilly Rock
TTITLE3=Now That's Country
TTITLE4=Burn Me Down
TTITLE5=The Likes Of Me
TTITLE6=Tempted
TTITLE7=This One's Gonna Hurt You (For A Long, Long Time) (With Travis
TTITLE7=Tritt)
TTITLE8=Little Things
TTITLE9=The Weight (The Staple Singers And Marty Stuart)
TTITLE10=Western Girls
TTITLE11=Don't Be Cruel (To A Heart That's True)
EXTD=
EXTT0=
EXTT1=Travis Tritt And Marty Stuart
EXTT2=
EXTT3=
EXTT4=
EXTT5=
EXTT6=
EXTT7=Travis Tritt And Marty Stuart
EXTT8=
EXTT9=The Staple Singers and Marty Stuart
EXTT10=
EXTT11=
PLAYORDER=
